<svg viewBox="0 0 64 64" xmlns="http://www.w3.org/2000/svg" xmlns:xlink="http://www.w3.org/1999/xlink">

  <symbol viewBox="0 0 64 64" id="emoji-1f625"><title>1f625</title><path d="M2,32c0,16.6,13.4,30,30,30s30-13.4,30-30S48.6,2,32,2S2,15.4,2,32z" fill="#ffdd67"/><path d="m47.7 37.6c0 8.6 11.7 8.6 11.7 0 0-6.3-5.8-12.4-5.8-12.4s-5.9 6.1-5.9 12.4" fill="#65b1ef"/><g fill="#664e27"><circle cx="38.5" cy="35" r="5"/><circle cx="15.5" cy="35" r="5"/></g><g fill="#917524"><path d="m20.6 19.9c-3.2 2.7-7.5 3.9-11.7 3.1-.6-.1-1.1 2-.4 2.2 4.8.9 9.8-.5 13.5-3.6.5-.5-1-2.1-1.4-1.7"/><path d="m45.1 22.9c-4.2.7-8.5-.4-11.7-3.1-.4-.4-2 1.2-1.4 1.7 3.7 3.2 8.7 4.5 13.5 3.6.7-.2.2-2.3-.4-2.2"/></g><path d="m38.1 47.3c-5.8-1.5-12-.4-16.9 3-1.2.9 1.1 4 2.3 3.2 3.2-2.3 8.4-3.8 13.7-2.4 1.3.3 2.4-3.3.9-3.8" fill="#664e27"/></symbol>

  <symbol viewBox="0 0 64 64" id="emoji-1f637"><title>1f637</title><circle cx="32" cy="32" r="30" fill="#ffdd67"/><g fill="#fff"><path d="m18.2 47.4l-9 4.1c.8 1 1.7 1.9 2.6 2.7l7.6-3.6-1.2-3.2"/><path d="m17.1 35.1l-15.1-3.4c0 .1 0 .2 0 .3 0 1.1.1 2.2.2 3.3l14.2 3.2.7-3.4"/><path d="m54.8 51.5l-9-4.1-1.3 3.3 7.6 3.6c1-.9 1.8-1.8 2.7-2.8"/><path d="m47.7 38.5l14.2-3.2c.1-1.1.2-2.2.2-3.3 0-.1 0-.2 0-.3l-15.1 3.5.7 3.3"/></g><path d="m49.9 39.9c0 10.6-8 19.1-17.9 19.1s-17.9-8.6-17.9-19.1c0-10.6 10.4-8.5 17.9-8.5 7.5-.1 17.9-2.1 17.9 8.5" opacity=".1"/><path d="m49.5 39.1c0 10-7.8 18-17.5 18s-17.5-8.1-17.5-18c0-10 10.2-8.1 17.5-8.1s17.5-1.9 17.5 8.1" fill="#fff"/><g fill="#664e27"><path d="m35.8 20.8c2 8.8 10.2 11 16.3 4.4.3-.3-.2-.6-.7-1.3-4.9 2.1-11.4.1-14.3-3.8-.8.2-1.4.2-1.3.7"/><path d="m11.8 25.2c6.1 6.6 14.3 4.4 16.3-4.4.1-.4-.5-.5-1.2-.7-3.2 4.3-9.9 5.8-14.4 3.9-.5.5-1 .8-.7 1.2"/></g><g fill="#917524"><path d="m53.2 17c-3.2-2.7-7.5-3.9-11.7-3.1-.6.1-1.1-2-.4-2.2 4.8-.9 9.8.5 13.5 3.6.6.5-1 2.1-1.4 1.7"/><path d="m22.5 13.7c-4.2-.7-8.5.4-11.7 3.1-.4.4-2-1.2-1.4-1.7 3.7-3.2 8.7-4.5 13.5-3.6.7.2.2 2.3-.4 2.2"/></g></symbol>

  <symbol viewBox="0 0 64 64" id="emoji-1f691"><title>1f691</title><path fill="#b3bdc4" d="m29.2 12.8h9.4v4.7h-9.4z"/><path d="m4.6 34.4c-.5.6-.7 3.2-.7 3.2v15h54.9c0 0 3.3-9.4 3.3-30 0-7.3-4.6-7.5-20.6-7.5s-20 1.5-23.4 4.7c-3.3 2.9-9.8 10.2-13.5 14.6" fill="#e1e8ed"/><path d="m19.5 20.8l-11.7 12.1h19.5v-15.3c-3.6 0-6.4 1.7-7.8 3.2" fill="#3e4347"/><path d="m62 54.5c0 1-.8 1.9-1.9 1.9h-56.2c-1 0-1.9-.8-1.9-1.9 0-1 .8-1.9 1.9-1.9h56.2c1.1 0 1.9.9 1.9 1.9" fill="#b3bdc4"/><path d="m33.9 6.7c-1.6 0-2.6 1.3-2.8 2.8-.1.8-.9 3.3-.9 3.3h7.5c0 0-.8-2.4-.9-3.3-.3-1.5-1.4-2.8-2.9-2.8" fill="#f15744"/><path d="m32 9.5c0 1 .8 1.9 1.9 1.9v-3.8c-1.1 0-1.9.9-1.9 1.9" fill="#ffc7ce"/><g fill="#f15744"><path d="m40 2l-2.8 4.7 4.6-3.3z"/><path d="m27.7 2l2.9 4.7-4.7-3.3z"/><path d="m38.6 8.6l4.6-1.9 1 1.9z"/><path d="m29.2 8.6l-4.7-1.9-.9 1.9z"/></g><path d="m6.4 46.7v-7.2c0-1-.8-1.9-1.9-1.9h-.6v3.8 7.2h.6c1 0 1.9-.9 1.9-1.9" fill="#62727a"/><g fill="#f15744"><path d="m61.4 36.6h-28.5l-3.8 3.8h-22.7v3.8h24.7l3.7-3.7h26.2c.2-1.2.3-2.5.4-3.9"/><path d="m52.6 25.9c0-.5-.4-.9-.9-.9h-3.3c-.5 0-.9-.4-.9-.9v-3.3c0-.5-.4-.9-.9-.9h-.9c-.5 0-.9.4-.9.9v3.2c0 .5-.4.9-.9.9h-3.3c-.5 0-.9.4-.9.9v.9c0 .5.4.9.9.9h3.3c.5 0 .9.4.9.9v3.5c0 .5.4.9.9.9h.9c.5 0 .9-.4.9-.9v-3.3c0-.5.4-.9.9-.9h3.3c.5 0 .9-.4.9-.9v-1"/></g><path d="m56.4 54.5c0-4.1-3.4-7.5-7.5-7.5-4.1 0-7.5 3.4-7.5 7.5 0 4.1 3.4 7.5 7.5 7.5 4.1 0 7.5-3.4 7.5-7.5" fill="#3e4347"/><path d="m48.9 50.2c2.4 0 4.3 1.9 4.3 4.3 0 2.4-1.9 4.3-4.3 4.3-2.4 0-4.3-1.9-4.3-4.3 0-2.4 1.9-4.3 4.3-4.3" fill="#dae3ea"/><g fill="#3e4347"><circle cx="48.9" cy="50.2" r="1.1"/><circle cx="45.2" cy="52.4" r="1.1"/><circle cx="45.2" cy="56.6" r="1.1"/><circle cx="48.9" cy="58.8" r="1.1"/><circle cx="52.6" cy="56.6" r="1.1"/><path d="m53.1 53.3c-.5.3-1.2.1-1.5-.4-.3-.5-.1-1.2.4-1.5.5-.3 1.2-.1 1.5.4s.1 1.2-.4 1.5"/></g><circle cx="48.9" cy="54.5" r="2.1" fill="#62727a"/><path d="m22.6 54.5c0-4.1-3.4-7.5-7.5-7.5-4.1 0-7.5 3.4-7.5 7.5 0 4.1 3.4 7.5 7.5 7.5 4.2 0 7.5-3.4 7.5-7.5" fill="#3e4347"/><path d="m19.4 54.5c0-2.4-1.9-4.3-4.3-4.3-2.4 0-4.3 1.9-4.3 4.3 0 2.4 1.9 4.3 4.3 4.3 2.4 0 4.3-1.9 4.3-4.3" fill="#dae3ea"/><g fill="#3e4347"><circle cx="15.1" cy="50.2" r="1.1"/><circle cx="11.4" cy="52.4" r="1.1"/><path d="m10.9 55.7c.5-.3 1.2-.1 1.5.4.3.5.1 1.2-.4 1.5-.5.3-1.2.1-1.5-.4-.3-.5-.1-1.2.4-1.5"/><circle cx="15.1" cy="58.8" r="1.1"/><circle cx="18.8" cy="56.6" r="1.1"/><circle cx="18.8" cy="52.4" r="1.1"/></g><circle cx="15.1" cy="54.5" r="2.1" fill="#62727a"/></symbol>

  <symbol viewBox="0 0 64 64" id="emoji-1f489"><title>1f489</title><g fill="#ed4c5c"><path d="m59.7 25.5c0 9.8-7.1 9.8-7.1 0 0-5.8 3.5-10.5 3.5-10.5s3.6 4.7 3.6 10.5"/><path d="m54.5 43.2c0 7.5-7.1 7.5-7.1 0 0-4.4 3.5-8 3.5-8s3.6 3.6 3.6 8"/></g><path fill="#d0d0d0" d="M21.1 55.5 9.5 43.7 35.4 17.5 47 29.3z"/><path fill="#ed4c5c" d="m30.2 43.7l14.2-14.4-9-9.2-14.3 14.4z"/><path fill="#333" d="m27.6 46.3l2.6-2.6-9.1-9.2-2.6 2.6z"/><path fill="#bcc0c1" d="m43.8 26l2.6-2.6-5.2-5.3-2.6 2.6z"/><g fill="#42ade2"><path d="m14.7 62l1.2-1.3-11.6-11.8-1.3 1.3z"/><path d="m12.7 57.4l5.2-5.2-5.2-5.3-5.2 5.3z"/></g><path fill="#fff" d="m45.1 19.4l-.3-.3z"/><path fill="#bcc0c1" d="m43.1 20.1l.4.3.3.4.6.6 15.3-15.4.7-2 .3-1 .3-1z"/></symbol>

  <symbol viewBox="0 0 64 64" id="emoji-1f6cc"><title>1f6cc</title><g fill="#3e4347"><path d="m6 55c0 .5-.4 1-1 1h-2c-.5 0-1-.5-1-1v-42c0-.6.5-1 1-1h2c.6 0 1 .4 1 1v42"/><path d="m5 55.3h4v6.7h-4z"/><path d="m55 55.3h4v6.7h-4z"/><path d="m62 49c0-.5-.4-1-1-1h-58c-.5 0-1 .5-1 1v8c0 .5.5 1 1 1h58c.6 0 1-.5 1-1v-8"/></g><path fill="#b0bdc6" d="m6 40h20v8h-20z"/><path d="m23.5 39.9c0 0-6.3 3.1-14.3.8-2.5-.7-5.3.9-4.8-.3 1.7-3.6 2.2-11-.1-13.9-1.6-2.1 3.6-.6 4.5 2.7 2.7 9.8 14.7 6 14.7 10.7" fill="#dae3ea"/><path fill="#ffdd67" d="m16.8 35l-.7 1.4 5.3 2.6 2.2-4.6z"/><path d="m17.1 34c2.4 1.2 5.2-1.6 5.2-1.6-.2 2 1.3 2 1.3 2-1 2-4.3 2.5-7.1 1.2l.6-1.6" fill="#eba352"/><path d="m8 32.2l6.4-6.9c3.7.5 10.4 4.6 7.3 8.9-.8 1.2-2.8 2.5-5.2 1.4l-1.5 2.1-7-5.5" fill="#ffdd67"/><path d="m7.3 28c-2.9 6 1.8 9.2 5.6 10.1 2.1.5 3.8 0 4.8-.9l-1.3-1.7c0 0-4.8-.6-4.8-4.9 0-1.8 2.6-3.9 2.6-5.4-.8-.9-5.2-.8-6.9 2.8" fill="#ffbc00"/><path d="m60 38c-.5-.5-27.8-13.7-34.9-8.1l-2 18.1h37.9c0 0 .7-8.1-1-10" fill="#ed4c5c"/><path d="m30 27.7c-1-1.4-2.6.6-2.6.6s-.7-1-1.6-.6c-.8.4-1.2 1.8-1.2 1.8s-1-1.1-1.5-.3c-8 12.4.9 30.4.9 30.4s-.7-8.1 1.5-10.1c2-1.8 3.4 3.5 3.4 3.5s-.2-7.8.5-8.4c1.6-1.2 2.9 5 2.9 5s2.5-15.4-2.3-21.9" fill="#a53838"/></symbol>

  <symbol viewBox="0 0 64 64" id="emoji-1f48a"><title>1f48a</title><path d="m6.2 57.8c-5.2-5.1-5.6-13.2-.9-17.9l17.1-17.1 18.8 18.8-17.1 17.1c-4.7 4.7-12.8 4.3-17.9-.9" fill="#ffce31"/><path d="m58.3 26.8c5.3-5.3 4.9-14.3-1-20.1-5.8-5.8-14.8-6.2-20.1-1l-12.8 12.8-3.7 3.7-.1.1c-.7.7-.7 1.9 0 2.6l18.4 18.4c.7.7 1.8.7 2.6 0l.1-.1c0 0 0 0 0 0l3.7-3.7c0 0 0 0 0 0l12.9-12.7" fill="#C5371B"/></symbol>

  <symbol viewBox="0 0 64 64" id="emoji-1f927"><title>1f927</title><circle cx="35" cy="29" r="27" fill="#ffdd67"/><g fill="#917524"><path d="m20.5 12.7c-.6.1-.4 2 .2 2 3.8-.3 7.6 1 10.2 3.7.4.4 1.8-.9 1.4-1.4-3.1-3.1-7.4-4.7-11.8-4.3"/><path d="m49.5 12.7c-4.4-.4-8.7 1.2-11.8 4.3-.4.5 1 1.8 1.4 1.4 2.7-2.7 6.4-4.1 10.2-3.7.5.1.8-1.9.2-2"/></g><path d="m33.1 29.3c-8.1 3.7-11.9 8-31.1 8.5 0 0 2 14.1 12.9 12.2 7.3-1.2 4.3 10.3 4.3 10.3s8-10.3 10-4.6c2.1 5.9 6.8 6.2 6.8 6.2 8.5-11.6 7.2-37.2-2.9-32.6" fill="#f5f5f5"/><g fill="#d6d6d6"><path d="m37.3 34.8c-.4-1.1-7.2 11.2-18 25.5 4.6-.6 8-7.6 9.2-4.5.6 1.7 3.7 4.3 3.7 4.3s8.6-14.5 5.1-25.3"/><path d="m32.3 33.5c.9-3.9-12.2 3.6-27.5 11.9 3.9 7.4 10 4.2 12.7 4.9 0 0 12.8-8.3 14.8-16.8"/></g><g fill="#664e27"><path d="m51.9 19.8c.5.3.3.9-.1.9-2.3.3-4.8.7-7.1 2 3.5.6 6.2 2.3 7.7 4.1.3.4-.1 1-.5.8-4.1-1.5-8.3-2.3-13.6-1.7-.4 0-.8-.2-.7-.6 1.4-6.1 9.4-8.4 14.3-5.5"/><path d="m18.1 19.8c-.5.3-.3.9.1.9 2.3.3 4.8.7 7.1 2-3.5.6-6.2 2.3-7.7 4.1-.3.4.1 1 .5.8 4.1-1.5 8.3-2.3 13.6-1.7.4 0 .8-.2.7-.6-1.4-6.1-9.4-8.4-14.3-5.5"/></g></symbol>

  <symbol viewBox="0 0 64 64" id="emoji-1f622"><title>1f622</title><circle cx="32" cy="32" r="30" fill="#ffdd67"/><path d="m40.6 46.4c-5.4-2.5-11.8-2.5-17.2 0-1.3.6.3 4.2 1.7 3.5 3.6-1.7 8.9-2.3 13.9 0 1.3.6 3-2.8 1.6-3.5" fill="#664e27"/><path d="m54 31c0 5-4 9-9 9-5 0-9-4-9-9 0-5 4-9 9-9 5 0 9 4 9 9" fill="#fff"/><circle cx="45" cy="31" r="6" fill="#664e27"/><g fill="#fff"><ellipse cx="46.6" cy="35.5" rx="2.8" ry="3.2"/><ellipse cx="42.8" cy="31" rx="1.6" ry="1.9"/><path d="m28 31c0 5-4 9-9 9-5 0-9-4-9-9 0-5 4-9 9-9 5 0 9 4 9 9"/></g><circle cx="19" cy="31" r="6" fill="#664e27"/><g fill="#fff"><ellipse cx="20.6" cy="35.5" rx="2.8" ry="3.2"/><ellipse cx="16.8" cy="31" rx="1.6" ry="1.9"/></g><path d="m47 36c-5.1 6.8-8 13-8 18.1 0 4.4 3.6 7.9 8 7.9 4.4 0 8-3.5 8-7.9 0-5.1-3-11.4-8-18.1" fill="#65b1ef"/><g fill="#917524"><path d="m53.2 20.7c-3.2-2.7-7.5-3.9-11.7-3.1-.6.1-1.1-2-.4-2.2 4.8-.9 9.8.5 13.5 3.6.6.5-1 2.1-1.4 1.7"/><path d="m22.5 17.4c-4.2-.7-8.5.4-11.7 3.1-.4.4-2-1.2-1.4-1.7 3.7-3.2 8.7-4.5 13.5-3.6.7.2.2 2.3-.4 2.2"/></g></symbol>

  <symbol viewBox="0 0 64 64" id="emoji-2600"><title>2600</title><g fill="#ffe62e"><path d="m20.5 59.7l7-7.2c-2.5-.5-4.8-1.5-6.9-2.9l-.1 10.1"/><path d="m43.5 4.3l-7 7.2c2.5.5 4.8 1.5 6.9 2.9l.1-10.1"/><path d="m4.3 43.5l10.1-.1c-1.4-2.1-2.4-4.4-2.9-6.9l-7.2 7"/><path d="m59.7 20.5l-10.1.1c1.3 2.1 2.3 4.4 2.9 6.9l7.2-7"/><path d="m4.3 20.5l7.2 7c.5-2.5 1.5-4.8 2.9-6.9l-10.1-.1"/><path d="m59.7 43.5l-7.2-7c-.5 2.5-1.5 4.8-2.9 6.9l10.1.1"/><path d="m20.5 4.3l.1 10.1c2.1-1.3 4.4-2.3 6.9-2.9l-7-7.2"/><path d="m43.5 59.7l-.1-10.1c-2.1 1.4-4.4 2.4-6.9 2.9l7 7.2"/></g><g fill="#ffce31"><path d="m14.8 44l-4 9.3 9.3-4c-2.1-1.5-3.9-3.3-5.3-5.3"/><path d="m49.2 20l4-9.3-9.2 4c2 1.5 3.8 3.3 5.2 5.3"/><path d="m11.4 28.3l-9.4 3.7 9.4 3.7c-.3-1.2-.4-2.4-.4-3.7s.1-2.5.4-3.7"/><path d="m52.6 35.7l9.4-3.7-9.4-3.7c.2 1.2.4 2.5.4 3.7 0 1.3-.1 2.5-.4 3.7"/><path d="m20 14.8l-9.3-4 4 9.3c1.5-2.1 3.3-3.9 5.3-5.3"/><path d="m44 49.2l9.3 4-4-9.3c-1.5 2.1-3.3 3.9-5.3 5.3"/><path d="m35.7 11.4l-3.7-9.4-3.7 9.4c1.2-.2 2.5-.4 3.7-.4s2.5.1 3.7.4"/><path d="m28.3 52.6l3.7 9.4 3.7-9.4c-1.2.3-2.4.4-3.7.4s-2.5-.1-3.7-.4"/><circle cx="32" cy="32" r="19"/></g></symbol>

  <symbol viewBox="0 0 64 64" id="emoji-1f628"><title>1f628</title><circle cx="32" cy="32" r="30" fill="#ffdd67"/><circle cx="19.5" cy="24.8" r="10" fill="#fff"/><circle cx="19.5" cy="24.8" r="3.5" fill="#664e27"/><circle cx="44.5" cy="24.8" r="10" fill="#fff"/><g fill="#664e27"><circle cx="44.5" cy="24.8" r="3.5"/><path d="m47.7 44c-1.7-3.6-5.9-6-15.7-6-9.8 0-14 2.4-15.7 6-.9 1.9.4 5 .4 5 1.6 3.9 1.4 5 15.3 5 13.9 0 13.6-1.1 15.3-5 0 0 1.3-3.1.4-5"/></g><path d="m43.4 43c.1-.3 0-.6-.2-.8 0 0-2.5-2.2-11.1-2.2s-11.1 2.2-11.1 2.2c-.2.2-.3.5-.2.8l.2.6c.1.3.4.5.7.5h21c.3 0 .6-.2.7-.5v-.6" fill="#fff"/><g fill="#917524"><path d="m50.2 13.5c-3.2-2.7-7.5-3.9-11.7-3.1-.6.1-1.1-2-.4-2.2 4.8-.9 9.8.5 13.5 3.6.6.4-1 2-1.4 1.7"/><path d="m25.5 10.2c-4.2-.7-8.5.4-11.7 3.1-.4.4-2-1.2-1.4-1.7 3.7-3.2 8.7-4.5 13.5-3.6.7.1.2 2.3-.4 2.2"/></g></symbol>

  <symbol viewBox="0 0 64 64" id="emoji-1f681"><title>1f681</title><path d="m46 20.4c-2 0-3.9-1-4.7-1.9-.8-.9-2.6-1.9-4.7-1.9h-14.9c-10.1 0-17.6 9.9-17.6 26.4 0 2.4 2.6 3.6 4.6 3.6h20.5c2 0 4.8-1.3 6.1-2.8 0 0 4.7-5.6 6.3-7.4 2.3-2.6 5.4-7.5 9.1-7.5h5.6v-8.4c.1-.1-7.7-.1-10.3-.1" fill="#ffce31"/><g fill="#3e4347"><path d="m32 31.2c0 .5-.4.9-.9.9h-3.8c-.5 0-.9-.4-.9-.9v-11.7c0-.5.4-.9.9-.9h3.8c.5 0 .9.4.9.9v11.7"/><path d="m22.6 18.5c-13.4 0-14.8 13.6-14.8 13.6h14.9c1 0 1.9-.8 1.9-1.9v-9.9c-.1.1-.1-1.8-2-1.8"/></g><path d="m60.5 14.8c-1.9 0-7.9 5.6-7.9 5.6v8.4l2.6 1.6c.8.7 1.8.4 2.1-.5 0 0 3.4-9.9 4.6-13.2.3-1.1-.3-1.9-1.4-1.9" fill="#ffce31"/><path d="m36.7 54.1h-5.7c-.1-3.5-.8-7.7-3.7-10.4-1-.9-2.6.4-1.6 1.3 2.3 2.1 2.9 6.1 3 9.1h-16c.1-3.1.7-7 3-9.1 1-.9-.6-2.2-1.6-1.3-2.9 2.7-3.6 6.9-3.7 10.4h-2.8c0 0-3.7.2-4.7-3.9h-.9c0 0 0 6.3 5.6 6.3 0 0 0 0 .1 0h29.1c.5 0 .9-.8.9-1.3-.1-.4-.5-1.1-1-1.1" fill="#62727a"/><path d="m35.9 40.3c1-1.1 2.2-2.6 3.2-3.8h-32.6c0 0-.4 2.1-.4 3.8h29.8" fill="#fff"/><path d="m58.6 28.2l-4-3.2c-.7-.6-1.8-1.7-2.4-2.4l-3.2-4c-.6-.7-1.7-.7-2.4 0-.7.7-.7 1.8 0 2.4l4 3.2c.7.6 1.8 1.7 2.4 2.4l3.2 4c.6.7 1.7.7 2.4 0 .8-.7.8-1.8 0-2.4" fill="#62727a"/><g fill="#b2c1c0"><circle cx="52.6" cy="24.7" r="1.9"/><path d="m28.7 15c-.1-.7-.7-1.2-1.3-1.2h-3.9c-.6 0-1.1.5-1.3 1.2l-.5 1.6h7.5l-.5-1.6"/></g><path d="m48.9 14.6c0 1.1-.8 1.8-1.8 1.5 0 0-11.3-3.5-21.6-3.5-11.2 0-21.6 3.5-21.6 3.5-1 .3-1.8-.3-1.8-1.4 0-1.1.8-2.2 1.9-2.3 0 0 10.3-1.7 21.6-1.7 10.3 0 21.6 1.7 21.6 1.7.8.1 1.7 1.1 1.7 2.2" fill="#62727a"/><g fill="#b2c1c0"><path d="m24.5 9.1h1.9v5.1h-1.9z"/><path d="m27.3 8.4c0 .5-.4.9-.9.9h-1.9c-.5 0-.9-.4-.9-.9 0-.5.4-.9.9-.9h1.9c.5 0 .9.4.9.9"/></g><path d="m27.3 12c0 .5-.4.9-.9.9h-1.9c-.5 0-.9-.4-.9-.9v-1c0-.5.4-.9.9-.9h1.9c.5 0 .9.4.9.9v1" fill="#62727a"/></symbol>

  <symbol viewBox="0 0 64 64" id="emoji-1f957"><title>1f957</title><path d="m2 33.2c0 13.2 13.4 28.8 30 28.8 16.6 0 30-15.6 30-28.8 0 0-60 0-60 0" fill="#b2c1c0"/><path d="m62 33.2c0 8.5-13.4 15.4-30 15.4-16.6 0-30-6.9-30-15.4 0-8.5 13.4-15.4 30-15.4 16.6 0 30 6.9 30 15.4" fill="#e8e8e8"/><path d="m32 46.6c-15.2 0-28.1-6.2-28.1-13.5 0-7.3 12.9-13.5 28.1-13.5 15.2 0 28.1 6.2 28.1 13.5 0 7.4-12.9 13.5-28.1 13.5" fill="#b2c1c0"/><path d="m12.5 16.4c.1 1.7.9 7.4.2 10 4.4.8 1.1-7.7-.2-10" fill="#699635"/><path d="m55.6 27.7c2-4.6-1.1-9.4-3.1-6.6-2 2.8-.5 4.6-5.6 3.6-1.1-1.9 1.6-7.7 0-8.8-2.6-1.7-2.6 4.7-5.6 1-3-3.6-3.1 4.9-7.6 4.9-2.2 0 .9-6.6-4.1-7.9-5-1.3-3.6 4.4-9.6 1.1-6-3.3-9.1 1.7-6.3 3.8 2.7 2.1.5 6.3.1 7.9-3.4-1.6-3.2 5.3-3.1 6.4-2.4.8-6.3 2.5-6.4 2.6 2.5 6 14.1 10.9 27.7 10.9 15.2 0 28.1-6.2 28.1-13.5 0-7.4-7.8 2.1-4.5-5.4" fill="#83bf4f"/><path d="m38.3 36c2.5-5.3-3.6-3.1-5.9-.8-.1-3.8 1.9-6.2 3.6-8.8-2.8 2-5.8 4.3-9.1 5.5 1.9 2.2 2.9 5.2 3.3 8.1 8 .8 6.2 4.6 5.8 6.5 9.5-.7-.1-5.3 2.3-10.5" fill="#699635"/><g fill="#ed4c5c"><path d="m17.3 22.8c-1.6 1.6-2.1 3.6-1.1 4.6.9 1 2.9.5 4.5-1.1 1.6-1.6 2.1-3.6 1.1-4.6-1-.9-3-.4-4.5 1.1"/><path d="m38.4 41.6c-1.6 1.6-2.1 3.6-1.1 4.6.9 1 2.9.5 4.5-1.1 1.6-1.6 2.1-3.6 1.1-4.6-.9-1-2.9-.5-4.5 1.1"/></g><path d="m26.1 20c-3.9.2-5.7 10.3-8.5 9.7 2.3 2.2 3.5 5.5 3.5 8.7.6.1 1.5-1.6 2 .2-.7-5.5-.5-11.5 3-18.6" fill="#699635"/><path d="m42.4 23.3c1 2 .9 4.1-.3 4.7-1.2.6-2.9-.4-4-2.4-1-2-.9-4.1.3-4.7 1.2-.6 3 .4 4 2.4" fill="#ed4c5c"/><path d="m50.1 25c-8.5-1-9.8-1.2-2.7 5.9 1.9 2.4-5.3 7.5-7.9 8 3.3 6.3 3.9 6.9 8.5 5.3 6.4-2.2 3.2-9.7 6.2-8.1-1.6-2.4-10.6-3.5-4.1-11.1" fill="#699635"/><path d="m55.3 30.1c-.2-1.1 2.2-3.6 1.7-7.1-.5-3.2-4.2-5.1-5.3-1.4-1 3.4-4.2 2.6-4.2 2.6 2.1-8.2 1-12.2-3.6-7.3-2.4 2.5-.2-8.5-7.8 3.2-3.9 6-2.3-13.7-9.3-6.5-5.6 5.7-9.9-5.4-13.6 1.3-1.9 3.5 2.2 4 1.1 10.8 0 0-4.2-2.6-3.8 6 .1 1.5-7.4 1.8-5.7 4.3 1.7-.7 12.4-5.8 11.8-1.1-.2 1.4-1.1 5.9 1.4 5.7 2.7-.2 5.2-4.4 5.3.4.1 3.7 1.9 3.9 4.5 1.6.7-.6 1.2-1.6 2.2-2 1.8-.7 3.5.3 5.2.9 3.2 1.2 2.3-3.3.1-4.1-.4-.1-2.9-.5-2.7-.9.4-1.2 1.8-2 2.8-2.5.9-.4 1.9-.7 2.9-.7 1.4.1.9 1 .6 2.1-.3 1.3-.1 3 1.3 3.4 1.6.5 2.9-1 4-1.9.8-.7 6.1-4.1 4.3-.5-1.1 2.1-6.4 2.8-4 5.9 1.6 2 3.8 1.1 5-.8 1-1.5 1.4-3.3 1.8-5.1.3-1.4.4-2.2 1.8-1.5 1.9 1 4.3 3.2 4.4-.4.1-2.4 1-6.8 3.1-2.6-1.3-5.5-5.1-.3-5.3-1.8m-13 6.8c-.1.1-2.6 1.9-3 .2-.3-1.3 1-2.8.2-3.9-1.4-1.9-5.1-.1-6.5.9-.8.6-2.8 2.5-1.3 3.4 1.1.7 2.8.3 3.8 1.3.8.8 1 2.3-.4 1.7-1.8-.7-3.6-1.6-5.6-.8-1.1.4-3.8 4.4-5.1 3.6-.7-.4-.4-3.2-.5-4-.3-2.3-1.9-1.9-3.4-1-.6.4-2.4 1.7-3.1 1.2-.7-.5-.3-2.7-.2-3.4.5-4.3-2.3-4.7-5.9-3.7 0-1.3-.1-6.5 2.3-5.6 1.4.5 5 4.9 6.3 2.4 1.4-2.7 7.6-14.6 7.6-5.7 0 2.4-2.1 7.5-.4 8.7 1.5 1 5.3-3.2 6.3-3.8 2.5-1.7 5.3-3.3 6.6.5.9 2.5 1.1 5.8 4.2 6.5-.8.5-1.4 1-1.9 1.5m4.8-4.2c-.3 1.8-2.4 2.2-3.8 1.4-2.9-1.7-1.3-7.6-4.9-8.5-4.3-1.1-9.9 6.4-10.7 5.6-1-1.1 1.1-5.7.8-8.7-.9-7.7-6.9-.2-9.3 6-.5 1.2-4.2-2-4.2-2 1.9-8.2-2.6-8.1-1.2-10.7 2.9-5.8 7.2 5.4 13.1-.7 6.4-6.5 4 14.6 10 5.7 5.5-8.1 4.6-1.4 5.8-1.8 2.1-.7 5.7-7.6 3.8 5.1-11.9-2.2 1.2 5.1.6 8.6m8.8 3.1c-1.5-.3-3.1-2.9-4.9-2-1.5.7-1.6 4.7-2.2 6.1-.7 1.7-3 3.8-4.4 1.3-.3-.6 4-3.3 4.5-4.5 1-2.3-1.1-2.5-.9-4 .7-4.6-10.3-9.2-.4-7.5 5.6 1 4.3-5.9 6.9-4.4 5 3-3.7 10.5 1.9 10.6-.4 1.5-.2 3-.5 4.4" fill="#c7e755"/><path d="m8.6 34.6c1.6 1.5 2.1 3.6 1.1 4.6-.9 1-2.9.5-4.5-1.1-1.6-1.6-2.1-3.6-1.1-4.6 1-.9 3-.4 4.5 1.1" fill="#ed4c5c"/></symbol>

  <symbol viewBox="0 0 64 64" id="emoji-1f912"><title>1f912</title><circle cx="32" cy="32" r="30" fill="#ffdd67"/><g fill="#664e27"><circle cx="43.5" cy="30.3" r="5"/><circle cx="20.5" cy="30.3" r="5"/></g><g fill="#917524"><path d="m25.6 15.2c-3.2 2.7-7.5 3.9-11.7 3.1-.6-.1-1.1 2-.4 2.2 4.8.9 9.8-.5 13.5-3.6.5-.5-1-2.1-1.4-1.7"/><path d="m50.1 18.2c-4.2.7-8.5-.4-11.7-3.1-.4-.4-2 1.2-1.4 1.7 3.7 3.2 8.7 4.5 13.5 3.6.7-.2.2-2.3-.4-2.2"/></g><path d="m4.4 38.7l24.2 14.2 4.6-6.5-21.4-18.1c-6.4-4.5-13.7 5.9-7.4 10.4" fill="#e5e5e5"/><path d="m5.8 36.5l23.8 15 2.8-3.9-22.2-17.3c-3.7-2.6-8.1 3.6-4.4 6.2" fill="#fff"/><path fill="#ed4c5c" d="m7.5 36.2l22.1 14.4 1.9-2.6-21.1-16z"/><ellipse transform="matrix(.5763-.8172.8172.5763-24.0655 21.7566)" cx="9" cy="34.1" rx="2.6" ry=".9" fill="#a5203c"/><g fill="#51575b"><path d="m18.1 41.5l-2 2.8-.9-.5 2-2.9z"/><path d="m20.5 43.2l-1.9 2.7-.9-.5 1.9-2.8z"/><path d="m23 44.9l-1.9 2.6-.8-.5 1.8-2.6z"/><path d="m25.4 46.6l-1.6 2.4-.9-.6 1.7-2.3z"/><path d="m27.9 48.3l-1.5 2.2-.9-.6 1.5-2.1z"/></g><path d="m41.5 43.9c-6 .3-11.6 3.3-15.2 8-.9 1.2 2.2 3.5 3.1 2.3 2.4-3.1 6.8-6.2 12.3-6.5 1.4 0 1.3-3.8-.2-3.8" fill="#664e27"/></symbol>

  <symbol viewBox="0 0 64 64" id="emoji-1f40d"><title>1f40d</title><path d="m61.7 24.3c-.1-1-.3-1.9-.5-2.6-.4-1.4-.7-2.3-1-2.9-.3-.7-.6-1.1-.9-1.5-.5-.8-1-1.3-1.5-1.7-.9-.8-1.7-1.4-2.5-1.9-1.6-.9-3.2-1.5-4.7-2.1-3.1-1-6.2-1.6-9.2-2.1-6.1-1-12.2-1.4-18.3-1.9-1.5-.1-3-.3-4.5-.6-.4-.1 2-.9 3.2-1.3 6-1.6 12.1-2.6 18.2-3.2-6.1-.5-12.2-.7-18.3-.3-7.7.6-9.5 2.8-9.2 6.4.1.9.3 1.1.4 1.4.1.2.2.4.3.5.2.2.3.3.4.5.9.8 1.6 1.2 2.4 1.6.8.4 1.5.7 2.3 1 1.5.6 3 1 4.6 1.5 6.1 1.8 12.1 3.5 18 5.8 3 1.1 5.9 2.4 8.8 4 1.1.6-19.6 14.1-25.6 14.8l.7 19.5c6.1-2.1 12.2-4.4 18.3-7.9 1.5-.9 3.1-1.8 4.6-2.9 1.5-1.1 3-2.2 4.5-3.4 1.5-1.3 3-2.6 4.6-4.4.8-1 1.6-1.9 2.5-3.6.5-.9 1-1.8 1.6-4.1.3-1.1.6-2.8.7-5.1.3-1.3.2-2.4.1-3.5" fill="#8cc63e"/><g fill="#ffd93b"><path d="m50.5 27.6c-2.9-2.3-6.1-4-9.4-5.5-3.3-1.5-6.6-2.7-10-3.9-3.4-1.2-6.7-2.2-10.1-3.4-1.7-.6-3.4-1.2-5-2-.8-.4-1.6-.9-2.4-1.6-.4-.4-.7-.8-.9-1.3-.2-.5-.3-1.1-.3-1.8 0 .6-.2 2.5 3.7 4.2 1.6.7 3.4 1 5.1 1.5 3.4.8 6.8 1.5 10.3 2.4 3.4.8 6.9 1.7 10.3 2.8 3.4 1.2 6.8 2.6 10.1 4.7l-1.4 3.9"/><path d="m18 6.4c1.9-.7 3.7-1.1 5.5-1.6 1.8-.4 3.7-.8 5.5-1.1 3.7-.6 7.4-1 11-1.1-3.7.4-7.3 1.1-11 2-1.8.5-3.6 1-5.4 1.5-1.8.6-3.6 1.2-5.3 2l-.3-1.7"/></g><g fill="#8cc63e"><path d="m46 33.6l-2.3-4c4.6-2.9 5.4-5 5.7-6.9.3-1.8-.3-3.3-1.5-4.4l2.3-5.2c2.7 2.5 4 6.5 3.4 10.8-.7 4.9-3.7 8.7-7.6 9.7"/><path d="m22.9 9.4c-5.3-.4-6.2-1.1-6.2-4.4h1.2c0 1.8 0 2.2 5.1 2.7l-.1 1.7"/></g><path d="m31.7 51.5l2.4-.6c.8-.2 1.5-.4 2.3-.6 1.5-.4 3.1-.9 4.6-1.5 3-1.1 6.1-2.5 8.9-4.2 2.9-1.8 5.7-3.9 8-6.8 1.1-1.5 2.2-3.2 2.9-5.2.7-2 1.1-4.2 1-6.5.3 2.3.2 4.7-.3 6.9-.5 2.3-1.4 4.4-2.5 6.2-2.1 3.7-4.8 6.7-7.7 9.2-8 8-19.1 8.3-19.1 8.3l-.5-5.2" fill="#ffd93b"/><path d="m2.1 50.4c.3-1.2 1.5-2.3 2.6-2 1.1.3 1.7 1.8 1.4 3-.3 1.2-1.3 1.5-2.4 1.3-1.1-.3-1.9-1-1.6-2.3" fill="#e8f94b"/><path d="m2.9 50.7c.2-.8.9-1.4 1.6-1.3.7.2 1 1.1.8 1.9-.2.8-.8 1-1.5.8-.6-.2-1.1-.7-.9-1.4" fill="#252728"/><path d="m2 50.4c.3-1.3 1.6-2.5 2.8-2.2 1.2.3 1.8 1.9 1.5 3.3-1.9-1.6-4.3-1.1-4.3-1.1" fill="#4b662b"/><path d="m3.1 54.5c-.4-9.8 13-15.1 21.5-15.5 8.4-.4 15.3-.2 15.8 9.6.4 9.8-6.4 11.1-14.8 12.2-8.8 1.3-22 3.6-22.5-6.3" fill="#8cc63e"/><g fill="#4b662b"><path d="m8 55.2c-.3.9-.9 1.7-1.2 1.6-.4-.1-.4-1.1-.1-2 .3-.9.7-1.4 1.1-1.2.3 0 .5.6.2 1.6"/><path d="m4.8 54.3c0 .6-.2 1.2-.5 1.2-.2 0-.4-.6-.4-1.3 0-.6.2-1 .5-1s.4.4.4 1.1"/></g><path d="m12.9 52.3c0-2.7 2.1-5.6 4.7-5.6 2.6 0 4.7 2.9 4.7 5.6 0 2.7-2.1 3.9-4.7 3.9-2.6 0-4.7-1.2-4.7-3.9" fill="#e8f94b"/><path d="m14.7 52.5c0-1.7 1.3-3.5 2.9-3.5s2.9 1.8 2.9 3.5-1.3 2.4-2.9 2.4-2.9-.8-2.9-2.4" fill="#252728"/><g fill="#4b662b"><path d="m12.6 52.4c0-2.9 2.2-6 5-6 2.8 0 5 3.1 5 6-5-2.4-10 0-10 0"/><path d="m39.3 32.3c5.3.8 12.2 2.8 15 6.3 0 0-2-7.2-8.2-10.7-.2.2-.5.4-.7.6-1.8 1.1-3.9 2.4-6.1 3.8"/><path d="m44 44.7c0 0-1.4-7-7.1-11-2.4 1.4-4.8 2.7-7 3.8 5.2 1.2 11.7 3.6 14.1 7.2"/><path d="m47.4 26.6c4.2-.6 10.2-.2 12.9 1 0 0-3.8-4.9-10.9-5.4 0 0-.3 2.5-2 4.4"/><path d="m59.4 17.3c-.5-.8-1-1.3-1.5-1.7-.4-.3-.7-.6-1-.9-5.4 1.6-7.1 5.8-7.1 5.8 2.3-1.9 6.5-1.5 10.5-1.7 0 0 0 0 0-.1-.4-.6-.7-1.1-.9-1.4"/><path d="m22.3 12.1c.6-1.6 2.6-3.1 4.5-4.2-1.1-.1-2.2-.2-3.4-.3-1.2 2.2-1.1 4.5-1.1 4.5"/><path d="m16.4 10.2c1.1-1.3 3.9-2.2 6.1-2.6-.8-.1-1.5-.2-2.3-.3-.7-.1-1.2-.3-1.5-.4-1.8 1.5-2.3 3.3-2.3 3.3"/><path d="m47.7 10.8c-2.3 4-2.5 7.9-2.5 7.9 1.2-2.5 4.1-4.6 7.3-6.4-.6-.3-1.3-.5-1.9-.7-1-.3-1.9-.5-2.9-.8"/><path d="m33.4 14.6c.7-2.1 3.4-4 5.9-5.4-1.4-.2-2.8-.4-4.3-.5-1.8 2.7-1.6 5.9-1.6 5.9"/><path d="m40.3 9.4c-1.3 3.5-1.3 6.6-1.3 6.6.9-2.1 3-4.2 5.4-5.9-1-.2-2-.4-3-.6-.4 0-.7-.1-1.1-.1"/><path d="m27.9 13.8c.7-2 3.3-3.9 5.6-5.3-1.4-.1-2.8-.3-4.2-.4-1.5 2.7-1.4 5.7-1.4 5.7"/><path d="m17.6 6.6c0 0-1.9-1.2-4.3-1.4-.5.7-.7 1.6-.8 2.6 1.7-.9 3.6-1.5 5.1-1.2"/><path d="m18.9 5.6c0 0-.2-1.4-.9-2.9-.7.1-1.3.3-1.8.5 1.2.7 2.2 1.5 2.7 2.4"/><path d="m30.5 2.9c0 0 0-.3 0-.9-.1 0-.3 0-.4 0 .1.3.3.6.4.9"/><path d="m25.7 3.9c0 0 0-.8-.1-1.8-.3 0-.7 0-1 0 .5.6.9 1.2 1.1 1.8"/><path d="m34.9 2.6c0 0 0-.1 0-.4-.1 0-.1 0-.2 0 .1.1.2.3.2.4"/><path d="m22.1 2.2c-.1 0-.2 0-.4 0-.3 0-.6.1-1 .1.7.7 1.3 1.5 1.6 2.2 0 0 0-1-.2-2.3"/><path d="m32.9 2.6c0 0 0-.2 0-.5-.1 0-.1 0-.2 0 .1.2.2.3.2.5"/><path d="m28.2 3.3c0 0 0-.5-.1-1.3-.2 0-.5 0-.7 0 .4.4.7.9.8 1.3"/></g></symbol>

  <symbol viewBox="0 0 64 64" id="emoji-1f335"><title>1f335</title><g fill="#83bf4f"><path d="M15.2,31.4c0,1.7-1.4,3-3,3H10c-1.7,0-3-1.3-3-3V18.1c0-5.9,8.2-5.9,8.2,0V31.4z"/><path d="m23.4 26.3c1.7 0 3 1.3 3 3v2.1c0 1.7-1.4 3-3 3h-13.4c-1.7 0-3-1.3-3-3v-2.1c0-1.7 1.4-3 3-3h13.4"/></g><g fill="#699635"><path d="m26.9 28.5v-1.2h-11c-.2 0-1.7-.1-1.7-1.8v-7c0-4.3-3-4.9-3-4.9s1.9.8 1.9 4.9v7.7c0 2.2 1.8 2.2 2.2 2.2l11.6.1"/><path d="m13.4 29.7c-.2 0-1.8-.2-1.8-2.8v-8.4c0-3.3-.6-4.9-.6-4.9s-.6 1.5-.6 4.9v9.1c0 3.3 1.8 3.3 2.2 3.3h14.4v-1.2c0 0-13.6 0-13.6 0"/><path d="m9.2 29.4v-10.9c0-4.1 1.9-4.9 1.9-4.9s-3 .6-3 4.9v11.5c0 3.3 2.8 3.3 3.3 3.3h15.6v-1.2h-15c-.3.1-2.8-.2-2.8-2.7"/></g><g fill="#83bf4f"><path d="m46.4 47.2c0 2.1 1.8 3.9 3.9 3.9h2.7c2.2 0 3.9-1.7 3.9-3.9v-17.2c0-7.6-10.6-7.6-10.6 0 .1 0 .1 17.2.1 17.2"/><path d="m35.8 40.6c-2.2 0-3.9 1.7-3.9 3.9v2.7c0 2.1 1.8 3.9 3.9 3.9h17.3c2.2 0 3.9-1.7 3.9-3.9v-2.7c0-2.1-1.8-3.9-3.9-3.9h-17.3"/></g><g fill="#699635"><path d="m31.3 43.5v-1.5h14.2c.3 0 2.3-.1 2.3-2.3v-9.1c0-5.5 3.9-6.3 3.9-6.3s-2.4 1-2.4 6.3v10c0 2.9-2.3 2.9-2.9 2.9 0 0-15.1 0-15.1 0"/><path d="m48.7 45.1c.3 0 2.3-.3 2.3-3.6v-10.9c0-4.3.8-6.3.8-6.3s.8 2 .8 6.3v11.8c0 4.2-2.3 4.2-2.9 4.2h-18.5v-1.5c0 0 17.5 0 17.5 0"/><path d="m54.1 44.6v-14c0-5.3-2.4-6.3-2.4-6.3s3.9.8 3.9 6.3v14.9c0 4.2-3.7 4.2-4.2 4.2h-20.2v-1.5h19.4c.3 0 3.5-.4 3.5-3.6"/></g><path d="M39.5,64H22.8V10c0-12,16.7-12,16.7,0V64z" fill="#83bf4f"/><g fill="#699635"><path d="M37.4,64V11c0-8.7-6.2-10-6.2-10S35,2.6,35,11v53H37.4z"/><path d="M32.3,64V11c0-6.8-1.2-10-1.2-10S30,4.2,30,11v53H32.3z"/><path d="m27.3 64v-53c0-8.4 3.8-10 3.8-10s-6.2 1.3-6.2 10v53h2.4"/></g></symbol>

  <symbol viewBox="0 0 64 64" id="emoji-1f344"><title>1f344</title><path d="m54.7 13.7c-3.2-3.1-7-5.8-10.7-7.8-.2 5.6-5.5 10-12 10-6.5 0-11.8-4.5-12-10-3.8 2-7.6 4.7-10.7 7.8 2.1 3.3 1.1 8.8-2.3 12.8-1.5 1.7-3.2 2.9-4.9 3.4.9 17.5 13.9 16.8 29.9 16.8 16 0 29 .7 29.9-16.8-1.7-.6-3.4-1.7-4.9-3.4-3.4-4-4.4-9.6-2.3-12.8" fill="#e84d88"/><g fill="#fdeeff"><path d="m32 15.9c6.5 0 11.8-4.5 12-10-4.6-2.5-9-3.9-12-3.9s-7.4 1.4-12 3.9c.2 5.5 5.5 10 12 10"/><path d="m9.3 13.7c-4.3 4.1-7.3 9.1-7.3 14.2 0 .7 0 1.4.1 2.1 1.7-.6 3.4-1.7 4.9-3.4 3.4-4.1 4.4-9.7 2.3-12.9"/><path d="m54.7 13.7c-2.1 3.3-1.1 8.8 2.3 12.8 1.5 1.7 3.2 2.9 4.9 3.4 0-.7.1-1.3.1-2.1 0-5-3-10-7.3-14.1"/></g><path d="m50 41.5c0 4.3-8.1 5.2-18 5.2s-18-.9-18-5.2c0-4.2 8.6-8.1 18-8.1 9.4.1 18 3.9 18 8.1" fill="#a52355"/><path d="M47,64H17c0,0,2.8-8.2,3.7-14.9c1-7.6,1.5-13.9,11.3-13.9c9.8,0,10.3,6.3,11.3,13.9C44.2,55.8,47,64,47,64z" fill="#e2ccaf"/></symbol>

  <symbol viewBox="0 0 64 64" id="emoji-1f62f"><title>1f62f</title><circle cx="32" cy="32" r="30" fill="#ffdd67"/><g fill="#664e27"><circle cx="20" cy="27" r="5"/><circle cx="44" cy="27" r="5"/></g><g fill="#917524"><path d="m50.2 17c-3.2-2.7-7.5-3.9-11.7-3.1-.6.1-1.1-2-.4-2.2 4.8-.9 9.8.5 13.5 3.6.6.5-1 2.1-1.4 1.7"/><path d="m25.5 13.8c-4.2-.7-8.5.4-11.7 3.1-.4.4-2-1.2-1.4-1.7 3.7-3.2 8.7-4.5 13.5-3.6.7.1.2 2.3-.4 2.2"/></g><circle cx="32" cy="48" r="5" fill="#664e27"/></symbol>

  <symbol viewBox="0 0 64 64" id="emoji-1f915"><title>1f915</title><circle cx="31.9" cy="32.1" r="29.9" fill="#ffdd67"/><g fill="#664e27"><circle cx="43.7" cy="30" r="5"/><circle cx="20.2" cy="30" r="5"/></g><path d="m32 2c-6 0-11.7 1.8-16.4 4.9 17.7 9.1 33.2 23 41.7 41.2 3-4.6 4.7-10.2 4.7-16.1 0-16.6-13.4-30-30-30" fill="#cccfd4"/><path d="m32.9 3.6c-5.5 0-10.6 1.6-14.9 4.4 16.7 7.7 31.6 19.3 39.4 35.8 3.1-5.8 2.9-12.9 2.9-12.9-.1-15.1-12.3-27.3-27.4-27.3" fill="#fff"/><path d="m15.8 6.7c14.5-.1 28.9 3.3 41.9 9.8 2.7 4.5 4.3 9.8 4.3 15.5 0 .5 0 .9 0 1.4-17.2-10.6-37.4-15.3-57.5-13.4 2.4-5.5 6.4-10.1 11.3-13.3" fill="#cccfd4"/><path d="m17 8.1c13.6-.1 27.6 4 39.8 9.6 3.3 6.5 3.5 11.9 3.5 11.9-16.5-8.7-35.4-13.1-52.9-11.4 0 0 4.2-7.8 9.6-10.1" fill="#fff"/><path d="m40.3 42.8c-5.8-1.5-12-.4-16.9 3-1.2.9 1.1 4 2.3 3.2 3.2-2.3 8.4-3.8 13.7-2.4 1.3.3 2.4-3.3.9-3.8" fill="#664e27"/></symbol>

  <symbol viewBox="0 0 64 64" id="emoji-1f41f"><title>1f41f</title><path d="m58.7 41.5c0-3.5 4.9-11.4 2.6-13.8-2.5-2.6-8.3 8.5-11.2 8.5-3.5 0-5.6-4.3-7.3-6.1-1.4-1.4 2.6-7 .8-7.4-7.5-1.8-8.5 2.6-12.6 1.5-3.2-.8-6.5-1.3-9.7-1.3-12 0-14.3 8.6-16.4 16.6-.4 1.2 11.7 11.5 11.7 11.5s-9.2-5.2-9-4c1.5 6.6 7.7 10.8 14.7 12.4 2 .5 4.1.7 6.1.7 12.8 0 14.8-9.9 21.7-11.1 4.2-.7 8.7 7.4 11.1 4.9 2.6-2.6-2.5-8.3-2.5-12.4" fill="#728389"/><g fill="#8d9ba3"><path d="m48.1 60.5c-1.2 1.2-3.6 2.7-6.2 0-2.6-2.7-5.4-7.5-4.2-8.7 1.2-1.2 5.8 1.7 8.4 4.4 2.6 2.6 3.2 3.1 2 4.3"/><ellipse cx="33.4" cy="35.3" rx="2.2" ry="3.2"/><ellipse cx="37.6" cy="39.2" rx="1.2" ry="2.5"/><ellipse cx="39.9" cy="36" rx=".6" ry="1.7"/></g><g fill="#75d6ff"><ellipse cx="5.3" cy="44" rx="1.7" ry="1.8"/><ellipse cx="6.3" cy="23.4" rx="4.3" ry="4.5"/><ellipse cx="12.8" cy="10.3" rx="8" ry="8.3"/></g><ellipse cx="18.7" cy="38.5" rx="7.1" ry="7.4" fill="#fcfcfa"/><ellipse cx="18.7" cy="38.5" rx="4.9" ry="5.1" fill="#29251c"/></symbol>

  <symbol viewBox="0 0 64 64" id="emoji-1f37c"><title>1f37c</title><path d="m12.9 8.4c-.6-.1-1.5-1.8-3.9-4.1-2.8-2.9-4.8-2.7-6.1-1.4-1.3 1.3-1.5 3.3 1.4 6.1 2.4 2.4 4 3.2 4.1 3.9.5 3.7-1.9 7.1-.4 8.5l13.4-13.4c-1.4-1.5-4.8.9-8.5.4" fill="#ffe62e"/><path d="M61,39.6c1.4,1.4,1.4,3.5,0,4.9L44.5,61c-1.4,1.4-3.5,1.4-4.9,0L12.8,34.2c-1.4-1.4-1.4-3.5,0-4.9l16.5-16.5 c1.4-1.4,3.5-1.4,4.9,0L61,39.6z" fill="#b4d7ee"/><path d="m56.5 40.1c1 1 1 2.7 0 3.7l-12.6 12.7c-1 1-2.7 1-3.7 0l-18.4-18.3h32.8l1.9 1.9" fill="#fff"/><g fill="#2090bc"><path transform="matrix(.7071-.7071.7071.7071-15.5879 23.4144)" d="m16 29.3h9v2.4h-9z"/><path transform="matrix(.7071-.7071.7071.7071-17.4524 27.9141)" d="m20.5 33.8h9v2.4h-9z"/><path transform="matrix(.707-.7072.7072.707-19.3167 32.4211)" d="m25 38.3h9v2.4h-9z"/><path transform="matrix(.7072-.707.707.7072-21.1777 36.9065)" d="m29.5 42.8h9v2.4h-9z"/><path transform="matrix(.7071-.7072.7072.7071-23.0432 41.4224)" d="m34 47.3h9v2.4h-9z"/><path transform="matrix(.7072-.7071.7071.7072-24.9059 45.9132)" d="m38.5 51.8h9v2.4h-9z"/><path d="m6.7 25.4c-1.5-1.5-.4-2.9 1.1-4.4l13.1-13.2c1.5-1.5 2.9-2.6 4.4-1.1l3.4 3.4c1.5 1.5.4 2.9-1.1 4.4l-13.1 13.1c-1.5 1.5-2.9 2.6-4.4 1.1l-3.4-3.3"/></g><g fill="#095972"><path transform="matrix(.7067-.7076.7076.7067-15.3166 14.4145)" d="m9.2 22h1.1v7.4h-1.1z"/><path transform="matrix(.7071-.7071.7071.7071.8863 21.1058)" d="m25.4 5.8h1.1v7.4h-1.1z"/><path transform="matrix(.7071-.7071.7071.7071-1.8119 19.9882)" d="m22.7 8.5h1.1v7.4h-1.1z"/><path transform="matrix(.7076-.7067.7067.7076-4.5142 18.8545)" d="m20 11.2h1.1v7.4h-1.1z"/><path transform="matrix(.7071-.7071.7071.7071-7.2112 17.7513)" d="m17.3 13.9h1.1v7.4h-1.1z"/><path transform="matrix(.7076-.7067.7067.7076-9.9077 16.6192)" d="m14.6 16.6h1.1v7.4h-1.1z"/><path transform="matrix(.7071-.7071.7071.7071-12.6104 15.5146)" d="m11.9 19.3h1.1v7.4h-1.1z"/></g></symbol>

  <symbol viewBox="0 0 64 64" id="emoji-1f596"><title>1f596</title><g fill="#F3D6AA"><path d="m31.1 43.5l7.7 1.8 7.6-32.7c.5-2.2-.8-4.4-2.9-4.9-2.1-.5-4.2.9-4.8 3.2l-7.6 32.6"/><path d="m22.1 41.3l9 2.2 8.3-35.5c.6-2.6-.9-5.3-3.4-5.9-2.5-.6-5 1.1-5.7 3.8l-8.2 35.4"/><path d="m20.3 42.8l8.4-2.2-9.8-33c-.7-2.3-3.1-3.7-5.5-3.1-2.3.6-3.7 3-3 5.3l9.9 33"/><path d="m6.9 11.5c-2.2.6-3.3 2.7-2.7 4.9l8.4 28.4 7.7-2-8.4-28.4c-.7-2.1-2.9-3.4-5-2.9"/></g><g fill="#997642"><path d="m43.5 7.7c-.2-.1-.5-.1-.7-.1 1.7.8 2.7 2.7 2.2 4.7l-7.6 32.7 1.4.3 7.6-32.7c.5-2.2-.8-4.4-2.9-4.9"/><path d="m36 2.1c-.2 0-.5-.1-.7-.1 2.1.9 3.3 3.3 2.7 5.7l-4.7 20.1.9 2.5 5.2-22.3c.6-2.6-.9-5.3-3.4-5.9"/><path d="m13.5 4.5c-.3.1-.5.2-.7.3 2.1-.2 4.1 1.1 4.7 3.2l5.7 19.3 2.1 1.9-6.4-21.6c-.6-2.3-3.1-3.7-5.4-3.1"/><path d="m6.9 11.5c-.3.1-.5.2-.7.3 1.9-.1 3.7 1.1 4.3 3l4 13.6 2.1 1.7-4.6-15.6c-.8-2.2-3-3.5-5.1-3"/></g><path d="m59.7 29.2c-1.5-3.1-6.5-2.9-11.6 2.7-3.5 3.9-5.1 5.3-8.6 5.3l.8-4.5-30.9 1.2c0 0-1.8 12.8 1.2 19.8 4.5 10.4 27.8 13.2 35.1-4.6 1.5-3.5 4.4-6.1 7.1-9.4 3.1-4 8.6-7.1 6.9-10.5" fill="#F3D6AA"/><g fill="#997642"><path d="m59.7 29.2c-.3-.6-.7-1-1.2-1.4.1.1.2.2.2.4 1.7 3.4-3.8 6.5-7 10.5-2.6 3.3-5.6 5.9-7.1 9.4-6.3 15.4-24.6 15.4-32.3 8.3 7 8 26.7 8.8 33.4-7.3 1.5-3.5 4.4-6.1 7.1-9.4 3.1-4 8.6-7.1 6.9-10.5"/><path d="m40.7 37.1c-6.5-2.4-18 2.1-16.4 13.7 0-10.9 10.1-13.6 15.5-13.6.7 0 .9-.1.9-.1"/></g></symbol>

  <symbol viewBox="0 0 64 64" id="emoji-1f916"><title>1f916</title><path d="m57.6 13.7c-.7-1-1.6-1.7-2.7-2.2-3.4-1.7-11.6-1.3-12.3-5.7-.9-5.7-5.9.1-6.8.1-1.1 0-1.6-3.9-3.7-3.9-2.2 0-2.7 3.9-3.7 3.9-.9 0-5.9-5.8-6.8-.1-.7 4.3-9 4-12.3 5.7-1 .5-2 1.2-2.7 2.2-.5.8.6 1.6 1.2.9 1.6-2 4.8-2.4 7.1-2.8 1.9-.4 4-.6 5.9-1.4 2.6-1 2.5-4.9 3.3-4.9.6 0 2.7 3 4.5 3 1.6 0 2.6-3.7 3.5-3.7.9 0 1.9 3.7 3.5 3.7 1.9 0 4-3 4.6-3 .8 0 .7 3.9 3.3 4.9 1.8.8 3.9 1 5.9 1.4 2.3.5 5.6.8 7.1 2.8.5.7 1.6-.2 1.1-.9" fill="#00b9f1"/><path d="M53,57c0,2.8-2.2,5-5,5H16c-2.8,0-5-2.2-5-5V36h42V57z" fill="#89967a"/><path d="m32 12c-15.5 0-21 8.5-21 24v21h42v-21c0-15.5-5.5-24-21-24" fill="#b6c4a7"/><g fill="#89967a"><path d="m11 55c-1.1 0-2-1.2-2-2.6v-6.8c0-1.4.9-2.6 2-2.6v12"/><path d="m53 43c1.1 0 2 1.2 2 2.6v6.8c0 1.4-.9 2.6-2 2.6v-12"/></g><g fill="#3e4347"><path d="m7 20h-2v30h2 2v-2h-2z"/><path d="m57 20v28h-2v2h2 2v-30z"/></g><circle cx="58" cy="20" r="4" fill="#00b9f1"/><g enable-background="new"><circle cx="6" cy="20" r="4" fill="#ff5263"/></g><path d="m21.5 39.5c-4.4 0-8-3.6-8-8 0-4.4 3.6-8 8-8 4.4 0 8 3.6 8 8 0 4.4-3.6 8-8 8" fill="#efffd9"/><circle cx="21.5" cy="31.5" r="6" fill="#545b61"/><circle cx="21.5" cy="31.5" r="2.3" fill="#ff5263"/><path d="m42.5 39.5c-4.4 0-8-3.6-8-8 0-4.4 3.6-8 8-8 4.4 0 8 3.6 8 8 0 4.4-3.6 8-8 8" fill="#efffd9"/><path d="m42.5 37.5c-3.3 0-6-2.7-6-6 0-3.3 2.7-6 6-6 3.3 0 6 2.7 6 6 0 3.3-2.7 6-6 6" fill="#545b61"/><circle cx="42.5" cy="31.5" r="2.3" fill="#ff5263"/><path d="m19.8 54.1c-7.4 0-7.4-13 0-13h24.5c7.4 0 7.4 13 0 13h-24.5" fill="#efffd9"/><path d="m20.5 52.6c-6 0-6-10 0-10h23c6 0 6 10 0 10h-23" fill="#89967a"/><g opacity=".7" fill="#3e4347"><path d="m21.2 50.7c0 1.2-2 1.2-2 0v-6.1c0-1.2 2-1.2 2 0v6.1"/><path d="m25.9 50.7c0 1.2-2 1.2-2 0v-6.1c0-1.2 2-1.2 2 0v6.1"/><path d="m30.6 50.7c0 1.2-2 1.2-2 0v-6.1c0-1.2 2-1.2 2 0v6.1"/><path d="m35.4 50.7c0 1.2-2 1.2-2 0v-6.1c0-1.2 2-1.2 2 0v6.1"/><path d="m40.1 50.7c0 1.2-2 1.2-2 0v-6.1c0-1.2 2-1.2 2 0v6.1"/><path d="m44.8 50.7c0 1.2-2 1.2-2 0v-6.1c0-1.2 2-1.2 2 0v6.1"/></g><circle cx="32" cy="37" r="2" fill="#f5f5f5"/><path transform="matrix(.7071-.7071.7071.7071-16.7765 33.4583)" fill="#545b61" d="m31.6 35h.8v4h-.8z"/></symbol>

  <symbol viewBox="0 0 64 64" id="emoji-1f922"><title>1f922</title><circle cx="32" cy="32" r="30" fill="#c7e755"/><g fill="#425e21"><circle cx="20.5" cy="27" r="4.5"/><circle cx="43.5" cy="27" r="4.5"/><path d="m37.4 43.2h-10.8c-.7 0-.7-2.5 0-2.5h10.7c.8 0 .8 2.5.1 2.5"/><path d="m23.7 35c1 2 1.6 4.4 1.6 7 0 2.6-.6 5-1.6 7 2.1-.9 3.6-3.7 3.6-7s-1.5-6.1-3.6-7"/><path d="m40.3 49c-1-2-1.6-4.4-1.6-7 0-2.6.6-5 1.6-7-2.1.9-3.6 3.7-3.6 7s1.5 6 3.6 7"/></g><g fill="#75a843"><path d="m25.6 15.9c-3.2 2.7-7.5 3.9-11.7 3.1-.6-.1-1.1 2-.4 2.2 4.8.9 9.8-.5 13.5-3.6.5-.5-1-2.1-1.4-1.7"/><path d="m50.1 18.9c-4.2.7-8.5-.4-11.7-3.1-.4-.4-2 1.2-1.4 1.7 3.7 3.2 8.7 4.5 13.5 3.6.7-.2.2-2.3-.4-2.2"/></g><g opacity=".5" fill="#ff717f"><path d="m51.7 30.3c4.9 0 8.8 4 8.8 8.8 0 4.9-4 8.8-8.8 8.8-4.9 0-8.8-4-8.8-8.8-.1-4.8 3.9-8.8 8.8-8.8" opacity=".8"/><circle cx="12.3" cy="39.1" r="8.8" opacity=".8"/></g></symbol>

  <symbol viewBox="0 0 64 64" id="emoji-1f321"><title>1f321</title><path d="m37.9 46.2l3.1-36c0-11-18-11-18 0l3.1 36c-1.9 1.7-3.1 4.1-3.1 6.8 0 5 4 9 9 9 5 0 9-4 9-9 0-2.7-1.2-5.1-3.1-6.8m-5.9 13.6c-3.7 0-6.7-3-6.7-6.8 0-2.4 1.3-4.6 3.3-5.8l-2-37.2c0-6.4 10.8-6.4 10.8 0l-1.9 37.2c1.9 1.2 3.3 3.3 3.3 5.8 0 3.7-3.1 6.8-6.8 6.8" opacity=".8" fill="#a1b8c7"/><g fill="#ed4c5c"><path d="m28.4 21.4l1.4 27.5h4.4l1.4-27.5z"/><path d="m37.6 53c0 3.1-2.5 5.6-5.6 5.6-3.1 0-5.6-2.5-5.6-5.6 0-3.1 2.5-5.6 5.6-5.6 3.1 0 5.6 2.5 5.6 5.6"/></g><ellipse cx="32" cy="21.4" rx="3.6" ry="1.2" fill="#a5203c"/><g fill="#51575b"><path d="m30.9 28.2h-4.9l-.1-1.5h4.9z"/><path d="m30.9 32.4h-4.7v-1.5h4.6z"/><path d="m30.9 36.6h-4.5v-1.5h4.4z"/><path d="m30.9 40.8h-4l-.1-1.5h4.1z"/><path d="m31 45h-3.8v-1.4h3.7z"/></g></symbol>

  <symbol viewBox="0 0 64 64" id="emoji-1f636"><title>1f636</title><circle cx="32" cy="32" r="30" fill="#ffdd67"/><g fill="#664e27"><circle cx="20.5" cy="28.5" r="5"/><circle cx="43.5" cy="28.5" r="5"/></g></symbol>

  <symbol viewBox="0 0 64 64" id="emoji-1f634"><title>1f634</title><path d="M62,32c0,16.6-10.8,30-30,30C15.4,62,2,48.6,2,32C2,15.4,15.4,2,32,2S62,15.4,62,32z" fill="#ffdd67"/><g fill="#467591"><path d="m26.8 21.3c-.2-.4-.7-.6-1.1-.3l-2 1.2.7-5c0-.2 0-.4-.1-.5l-.6-1.2c-.1-.2-.3-.3-.5-.4-.2-.1-.4 0-.6.1l-4.9 2.9c-.2.1-.3.3-.4.5-.1.2 0 .4.1.6l.7 1.3c.2.4.7.6 1.1.3l1.9-1.1-.7 4.9c0 .2 0 .4.1.5l.7 1.3c.2.3.5.5.9.4.1 0 .1 0 .2-.1l5-2.9c.2-.1.3-.3.4-.5.1-.2 0-.4-.1-.6l-.8-1.4"/><path d="m40.5 8.1c-.1-.2-.3-.3-.5-.4l-7.9-2c-.4-.1-.8.2-.9.6l-.4 1.9c0 .2 0 .4.1.6.1.2.3.3.5.4l3.6.9-5.5 4.7c-.1.1-.2.3-.3.5l-.2 2c0 .2 0 .4.1.6.1.2.3.3.5.4l8 2c.1 0 .2 0 .3 0 .1 0 .2-.1.3-.1.2-.1.3-.3.3-.5l.4-1.9c.1-.4-.2-.9-.6-1l-3.8-1 5.5-4.8c.1-.1.2-.3.3-.5l.4-1.8c0-.2-.1-.4-.2-.6"/><path d="m55 22.4c.2-.1.3-.2.4-.4l1.2-2.5c.2-.4 0-.8-.4-1l-5.8-2.8 10.1-5c.2-.1.3-.2.3-.4l1.1-2.3c.2-.4 0-.8-.4-1l-10.5-4.9c-.4-.2-.8 0-1 .4l-1.2 2.5c-.2.4 0 .8.4 1l5.5 2.6-10 4.9c-.2.1-.3.2-.3.4l-1.2 2.5c-.1.2-.1.4 0 .6 0 .1.1.2.2.3.1.1.1.1.2.1l10.8 5.1c.2 0 .4 0 .6-.1"/></g><g fill="#664e27"><path d="m50 45.2c.8 1.2 1.1 3.6-.6 4.7-1.4.9-3.7.7-5.4 1.8-1.8 1.2-2.5 3.3-3.9 4.2-1.9 1.2-3.7-.2-4.5-1.4-1.4-2.2.7-6.1 4.7-8.6 3.9-2.6 8.3-2.9 9.7-.7"/><path d="m38.3 33.6c7.2 5.4 14.9 1.8 15.3-7.1 0-.5-.6-.4-1.4-.5-2.4 4.8-8.7 7.4-13.5 6.3-.3.7-.7 1.1-.4 1.3"/><path d="m15.9 44.1c7.2 5.4 14.9 1.8 15.3-7.1 0-.5-.6-.4-1.4-.5-2.4 4.8-8.7 7.4-13.5 6.3-.3.6-.8 1-.4 1.3"/></g></symbol>

  <symbol viewBox="0 0 64 64" id="emoji-1f60e"><title>1f60e</title><path d="M32,2c16.6,0,30,13.4,30,30S48.6,62,32,62C15.4,62,2,48.6,2,32S15.4,2,32,2" fill="#ffdd67"/><path d="m35.8 20.5c-2.2 1.1-5.5 1.1-7.7 0-2.3-1.2-5.2-2-8.7-2.3-3.4-.3-10.5-.3-14 1-.4.1-.8.3-1.2.5-.1.1-.2.2-.2.6v.5c0 1-.1.6.6 1 1.4.8 2.2 2.9 2.6 5.8.6 4.2 2.7 6.9 6 8.1 3.1 1.2 6.6 1.1 9.7-.1 1.7-.7 3.2-1.7 4.4-3.5 2.1-3 1.4-4.9 2.5-7.5.9-2.3 3.5-2.3 4.5 0 1.1 2.6.4 4.5 2.5 7.5 1.2 1.7 2.7 2.8 4.4 3.5 3.1 1.2 6.6 1.3 9.7.1 3.4-1.3 5.4-3.9 6-8.1.4-2.9 1.2-5 2.6-5.8.7-.4.6 0 .6-1v-.5c0-.4 0-.5-.3-.6-.4-.2-.8-.4-1.2-.5-3.6-1.3-10.7-1.3-14-1-3.5.3-6.4 1.1-8.8 2.3" fill="#494949"/><path d="m44.6 42.3c-8.1 5.7-17.1 5.6-25.2 0-1-.7-1.8.5-1.2 1.6 2.5 4 7.4 7.7 13.8 7.7s11.3-3.6 13.8-7.7c.6-1.1-.2-2.3-1.2-1.6" fill="#664e27"/></symbol>

  <symbol viewBox="0 0 64 64" id="emoji-1f635"><title>1f635</title><circle cx="32" cy="32" r="30" fill="#ffdd67"/><g fill="#664e27"><path d="m28.6 19.8l-12.1 12.2c-.8.8-3.6-2-2.8-2.8l12.2-12.2c.7-.7 3.5 2.1 2.7 2.8"/><path d="m25.8 32l-12.1-12.2c-.8-.8 2-3.6 2.8-2.8l12.2 12.2c.7.8-2.1 3.6-2.9 2.8"/><path d="m50.3 19.8l-12.1 12.2c-.8.8-3.6-2-2.8-2.8l12.2-12.2c.7-.7 3.5 2.1 2.7 2.8"/><path d="m47.5 32l-12.1-12.2c-.8-.8 2-3.6 2.8-2.8l12.2 12.2c.7.8-2.1 3.6-2.9 2.8"/><circle cx="32" cy="47" r="9"/></g><path d="m26 44c1.2-2.4 3.4-4 6-4 2.6 0 4.8 1.6 6 4h-12" fill="#fff"/></symbol>

  <symbol viewBox="0 0 64 64" id="emoji-1f44d-skin"><title>1f44d-skin</title><path d="m31.8 27.1c0 0-4.4.9-.8-6.6 2.6-5.4 2.3-11.7 0-15-3.8-5.3-11.1-3.6-10.3-.5 2.6 10.5-3.3 13.7-6.3 20.3-3.1 6.7-2.8 16.3-1.4 24.8.9 5.3 3.2 11.9 11.5 11.9h11.5l-4.2-34.9" fill="#F3D6AA"/><path d="m25.8 60.5c-8.3 0-10.1-6.6-11-11.9-1.4-8.5-1.6-15.3 1.1-22.2 3-7.5 6.1-7.7 6.1-22.5 0-.7.4-1.2.8-1.6-1.4.5-2.2 1.3-2.2 2.5 0 11.1-3.1 13.8-6.1 20.5-3.2 6.7-2.9 16.3-1.5 24.8.9 5.3 3.2 11.9 11.5 11.9h11.5v-1.5h-10.2" fill="#997642"/><path d="m46 35.8h-14.2c-5 0-5-8.7 0-8.7h14.2c5 0 5 8.7 0 8.7" fill="#F3D6AA"/><path d="m47.1 34.4h-14.2c-3.4 0-4.4-4-3.3-6.5-2.7 2.1-1.9 8 2.1 8h14.3c1.6 0 2.7-.9 3.3-2.2-.6.4-1.3.7-2.2.7" fill="#997642"/><path d="m47.5 44.6h-17c-6 0-6-8.7 0-8.7h17.1c5.9 0 5.9 8.7-.1 8.7" fill="#F3D6AA"/><path d="m48.9 43.1h-17.1c-4 0-5.3-4-3.9-6.5-3.2 2.1-2.3 8 2.6 8h17.1c1.9 0 3.2-.9 3.9-2.2-.7.4-1.6.7-2.6.7" fill="#997642"/><path d="m45.9 53.3h-14.4c-5 0-5-8.7 0-8.7h14.4c5.1 0 5.1 8.7 0 8.7" fill="#F3D6AA"/><path d="m47.1 51.8h-14.5c-3.4 0-4.5-4-3.3-6.6-2.7 2.1-2 8 2.2 8h14.4c1.6 0 2.7-.9 3.3-2.2-.5.6-1.3.8-2.1.8" fill="#997642"/><path d="m44.4 62h-9.3c-5.4 0-5.4-8.7 0-8.7h9.3c5.4 0 5.4 8.7 0 8.7" fill="#F3D6AA"/><path d="m45.6 60.6h-9.3c-3.6 0-4.8-4-3.5-6.6-2.9 2.1-2.1 8 2.3 8h9.3c1.8 0 2.9-.9 3.5-2.2-.6.5-1.4.8-2.3.8" fill="#997642"/></symbol>

  <symbol viewBox="0 0 64 64" id="emoji-1f44e-skin-2"><title>1f44e-skin-2</title><g transform="translate(10.000000, 1.000000)"> <path d="M20.8,34.9 C20.8,34.9 16.4,34 20,41.5 C22.6,46.9 22.3,53.2 20,56.5 C16.2,61.8 8.9,60.1 9.7,57 C12.3,46.5 6.4,43.3 3.4,36.7 C0.3,30 0.6,20.4 2,11.9 C2.9,6.6 5.2,1.77635684e-15 13.5,1.77635684e-15 L25,1.77635684e-15 L20.8,34.9" fill="#F3D6AA"></path> <path d="M3.06225586,13.375 C2.37475586,22 2.2,28.7 4.9,35.6 C7.9,43.1 11,43.3 11,58.1 C12.2498779,59.65625 14.4998779,60.25 19.4373779,57.2 C14.9061279,61.875 9.6,59.625 9.6,57.2 C9.6,46.1 6.5,43.4 3.5,36.7 C0.3,30 0.6,20.4 2,11.9 C2,11.9 2.79681396,7.23431396 4.14056396,5.32806396 C4.14056396,5.32806396 6.21868896,0.609313965 12.0622559,0.0622558594 C15.406189,-0.0469360352 18.093689,0.0622558594 23.156189,0.0622558594 C19.046814,0.0622558594 16.2211835,0.0622558594 11.937439,0.296813965 C3.12493896,1.28118896 3.06225586,13.375 3.06225586,13.375 Z" fill="#997642"></path> <path d="M35,26.2 L20.8,26.2 C15.8,26.2 15.8,34.9 20.8,34.9 L35,34.9 C40,34.9 40,26.2 35,26.2" fill="#F3D6AA"></path> <path d="M36.1,33.3999996 C37,33.3999996 37.7,33.0999996 38.3,32.6999996 C37.7,33.9999996 36.6,34.8999996 35,34.8999996 L20.7,34.8999996 C16.7,34.8999996 15.9,28.9999996 18.6,26.8999996 C17.5,29.3999996 18.5,33.3999996 21.9,33.3999996 L36.1,33.3999996 Z" fill="#997642"></path> <path d="M36.5,17.4 L19.5,17.4 C13.5,17.4 13.5,26.1 19.5,26.1 L36.6,26.1 C42.5,26.1 42.5,17.4 36.5,17.4" fill="#F3D6AA"></path> <path d="M37.9,24.6000004 C38.9,24.6000004 39.8,24.3000004 40.5,23.9000004 C39.8,25.2000004 38.5,26.1000004 36.6,26.1000004 L19.5,26.1000004 C14.6,26.1000004 13.7,20.2000004 16.9,18.1000004 C15.5,20.6000004 16.8,24.6000004 20.8,24.6000004 L37.9,24.6000004 Z" fill="#997642"></path> <path d="M34.9,8.7 L20.5,8.7 C15.5,8.7 15.5,17.4 20.5,17.4 L34.9,17.4 C40,17.4 40,8.7 34.9,8.7" fill="#F3D6AA"></path> <path d="M36.1,15.9999996 C36.9,15.9999996 37.7,15.7999996 38.2,15.1999996 C37.6,16.4999996 36.5,17.3999996 34.9,17.3999996 L20.5,17.3999996 C16.3,17.3999996 15.6,11.4999996 18.3,9.39999962 C17.1,11.9999996 18.2,15.9999996 21.6,15.9999996 L36.1,15.9999996 L36.1,15.9999996 Z" fill="#997642"></path> <path d="M33.4,0 L24.1,0 C18.7,0 18.7,8.7 24.1,8.7 L33.4,8.7 C38.8,8.7 38.8,0 33.4,0" fill="#F3D6AA"></path> <path d="M25.3,7.39999995 C21.7,7.39999995 20.5,3.39999995 21.8,0.799999952 C18.9,2.89999995 19.7,8.79999995 24.1,8.79999995 L33.4,8.79999995 C35.2,8.79999995 36.3,7.89999995 36.9,6.59999995 C36.3,7.09999995 35.5,7.39999995 34.6,7.39999995 L25.3,7.39999995 Z" fill="#997642"></path></g></symbol>


  <symbol viewBox="0 0 64 64" id="emoji-1f3c3"><title>1f3c3</title><path fill="#F3D6AA" d="m30.1 15.8l2.5-2 1.7 9.4-6.1 1.1z"/><path d="m26.8 20.9c2 .8 1.4 3.4 1.4 3.4 2.5-.5 3.3-5.6 2.8-8.6l-4.2 5.2" fill="#997642"/><path d="m29.7 3.3l-10.1 5.7c-.9 2.8.3 3.9.4 5 .1.5-.7 1.5-1.2 2.1-1 1.2 1.1 1.7 1.8 1.4.7 1-.6 1.9 2.5.7 0 0-3 2-.6 2.2 0 1.3.2 3.9 6.5.1 1.9-1.1 2-4.8 2-4.8l3.3-1.2-4.6-11.2" fill="#F3D6AA"/><path d="m21.9 3.7c6.7-3.7 11.2-.7 12.2.8 2.6 4 1.9 9.2-.7 13.4 0 0-1.7-.4-2.3-2.3 0 0 1.9.5 2-3.4.1-3.3-3.6-4.3-4.5.3l-.5.1c-1.3-2-.1-5-2.8-5.4-2.3-.3-5.9 2.3-5.9 2.3-.9-1.1-.2-4.3 2.5-5.8" fill="#997642"/><path d="m22.7 13.5c.1.7-.2 1.3-.6 1.4-.5.1-.7-.4-.8-1.1s-.1-1.3.4-1.3c.4-.1.9.3 1 1" fill="#937237"/><path d="m29.7 13.2c-.2-1.3.7-2.7 1.8-2.9 0 0-1.6 1.9-.7 3.9-.1 0-1-.1-1.1-1" fill="#997642"/><path d="m24.2 17.7c0 0-1.1 1.2-1.6 1.5-.9.7-1.1.4-.6-.1.4-.4 1.1-.9 1.1-.9l1.1-.5" fill="#937237"/><g fill="#d3976e"><path d="m51.4 53.5c-.4 2 .9 3.9 2.9 4.3l1.7-8.5c.2-1-.5-1.9-1.5-2.1l-1.8-.3-1.3 6.6"/><path d="m16.1 57.5c-2-.4-3.9.9-4.3 2.9l8.6 1.6c1 .2 2-.5 2.2-1.4l.4-1.8-6.9-1.3"/></g><path d="m49 28.8l-3.3-6.8c-.4-.8-1.3-1.2-2.2-1.1l-7.5.3c-1.1 0-2 .9-1.9 2 0 1.1 1 1.9 2.1 1.9l6.6-.2 2.8 5.7 3.4-1.8" fill="#3b946f"/><path d="m47.1 29.2l-1.8.7c-.6.2-1 .9-.7 1.6l.3.9c.2.5.6.8 1.1.8.5 1.1 1.5 2.5 3.7 1.7.4-.1 2.4-.8 1.5-3.2-1.4-3.5-1.4-3.5-4.1-2.5" fill="#F3D6AA"/><path d="m46.4 33.1c1.5-.6.7-2.2.3-3.3-.1-.2-.3-.1-.3.1.3.9 1.2 2.4-.1 3-.1 0 0 .2.1.2" fill="#997642"/><path fill="#3e4347" d="m43.2 45l-3.6-5.5h-12.6l-8.5 5.8-2.4 12.1 6.8 1.4 1.9-9.4 8.6-4.2 5.6 5.9 12.4 2.4 1.3-6.7z"/><path d="m39.6 39.5l-3.9-18.3-9.8 1.8c-.4.1-.8.3-1.1.6l-4.5 4.7-6-2.1-1.3 3.7 7.3 2.5c.9.3 1.8 0 2.3-.8l3.6-3.8.8 11.7h12.6" fill="#47b892"/><path d="m14.1 28.3l.8-1.7c.3-.6 0-1.4-.6-1.6l-.9-.4c-.5-.2-1-.1-1.3.2-1.1-.5-2.8-.8-3.8 1.3-.2.3-1.1 2.2 1.2 3.3 3.4 1.5 3.4 1.5 4.6-1.1" fill="#F3D6AA"/></symbol>

  <symbol viewBox="0 0 64 64" id="emoji-1f468-1f469-1f467-1f466"><title>1f468-1f469-1f467-1f466</title><path d="M17,2C7.3,2,2,8.3,2,16.7v18.5h30V16.7c0-12.4-8.1-12.2-8.1-12.2S23.3,2,17,2z" fill="#ffb300"/><path d="m32 34.8v27.2h30v-27.2c0-5.8-30-5.8-30 0" fill="#01579b"/><path d="M2,34.8V62h30V34.8C32,29,2,29,2,34.8z" fill="#c2185b"/><path d="m6.4 23.6c0 0-2.2-.6-2.2-3.9 0-2.6 1.7-3.1 1.7-3.1 6 0 15.8-7.8 15.8-7.8s3.7 6.9 7.3 7.8c0 0 1.7.3 1.7 3.1 0 3.3-2.3 3.9-2.3 3.9 0 5-6.8 10-11 10-4 0-11-5-11-10" fill="#ffdd67"/><g fill="#937237"><circle cx="12.1" cy="20.3" r="2.2"/><circle cx="22.9" cy="20.3" r="2.2"/><path d="m21.1 27.1c-2.3 1.8-4.9 1.8-7.2 0-.3-.2-.5.2-.3.5.7 1.3 2.1 2.4 3.9 2.4s3.2-1.1 3.9-2.4c.2-.3 0-.7-.3-.5"/></g><path d="m31.9 17.3l1.5 2.8h26.2l1.1-2.9c0-10.6-2.5-15-14.1-15.1-11.8-.2-14.7 4.5-14.7 15.2" fill="#ffb300"/><path d="m59.7 17.1c-.1.6-.2 1.2-.4 1.5-.3.6-.9.9-.9.9s.2-1.2.1-2.8c-.7-9.7-1.2-5.1-11.9-5.1-10.7 0-11.3-4.7-11.9 5-.1 1.7.1 2.8.1 2.8s-.6-.3-.9-.9c-.2-.3-.3-.9-.4-1.5-1-.3-2.3 0-2.3 2.9 0 1.8.7 3.3 2.9 3.5.8 6.1 8.9 10.1 12.6 10.1 3.6 0 11.8-4.1 12.6-10.1 2.2-.2 2.9-1.7 2.9-3.5-.2-2.8-1.5-3-2.5-2.8" fill="#ffdd67"/><g fill="#937237"><circle cx="41" cy="20.3" r="2.2"/><circle cx="52" cy="20.3" r="2.2"/><path d="m50.1 27.1c-2.3 1.8-4.9 1.8-7.2 0-.3-.2-.5.2-.3.5.7 1.3 2.1 2.4 3.9 2.4s3.2-1.1 3.9-2.4c.2-.3 0-.7-.3-.5"/></g><path d="m57 62h-25c0-8.4 25-8.4 25 0" fill="#29b6f6"/><path d="m44.5 36c-6.7 0-10.9 3.8-10.9 8.5v3.2c0 3.7 2.9 3.7 2.9 3.7h16.4c0 0 2.5 0 2.5-3.7 0-1.7 0-3.2 0-3.2 0-4.7-4.4-8.5-10.9-8.5" fill="#ffb300"/><path d="m34.6 48.5l.4-4.5c0-2.9 4.5-.6 9.5-.6s9.5-2.3 9.5.6l.4 4.5c2.2 0 2.2 3.5 0 3.5 0 4.4-5.9 7-9.9 7-4 0-9.9-2.6-9.9-7-2.1 0-2.1-3.5 0-3.5" fill="#ffdd67"/><g fill="#937237"><circle cx="39.7" cy="49.8" r="1.8"/><circle cx="49.3" cy="49.8" r="1.8"/><path d="m41.4 54.4c2 1.5 4.3 1.5 6.3 0 .2-.2.5.1.3.4-.6 1.1-1.9 2-3.4 2-1.6 0-2.8-1-3.4-2-.3-.3-.1-.6.2-.4"/></g><path d="m30 51.6h.9v-5.7c0-5.5-4.4-9.8-11.6-9.8-6.9 0-11.6 4.4-11.6 9.8 0 1.1 0 5.7 0 5.7h1.2c-1.5 1.7-2.7 5.4-1.4 7.7.5.9 5.9 4.2 6.4-1.6h11.1c.5 5.8 5.9 2.5 6.4 1.6 1.3-2.3.1-6-1.4-7.7" fill="#ffb300"/><g fill="#ff81ab"><path d="m19.3 37.8c-6.2 0-10.4 3.2-10.4 7.2 0 0 0 .5 0 1.2 0-4 4.2-7.2 10.4-7.2 6.4 0 10.4 3.2 10.4 7.2v-1.2c0-4-3.9-7.2-10.4-7.2"/><path d="m7 62h25c0-8.4-25-8.4-25 0"/></g><path d="m29.3 52.8c0 0 1.8.3 1.8-1.7 0-1.6-1.8-1.5-1.8-1.5v-1.8c0 0-13.5-.6-16.6-5.7.8 5.1-3.3 7.4-3.3 7.4s-1.8-.2-1.8 1.5c0 2 1.8 1.7 1.8 1.7 0 3 5.3 6.2 10.2 6.2 4.4.1 9.7-2.6 9.7-6.1" fill="#ffdd67"/><g fill="#937237"><path d="m25.8 49.8c0 1-.8 1.8-1.8 1.8-1 0-1.8-.8-1.8-1.8s.9-1.8 1.8-1.8c1 0 1.8.8 1.8 1.8"/><circle cx="14.9" cy="49.8" r="1.8"/><path d="m22.6 54.4c-2 1.5-4.3 1.5-6.3 0-.2-.2-.5.1-.3.4.6 1.1 1.9 2 3.4 2 1.6 0 2.8-1 3.4-2 .3-.3 0-.6-.2-.4"/></g></symbol>

  <symbol viewBox="0 0 64 64" id="emoji-1f469-1f469-1f466"><title>1f469-1f469-1f466</title><path d="M47,2c-6.3,0-6.9,2.5-6.9,2.5S32.3,4.3,32,15.9C31.7,4.3,23.9,4.5,23.9,4.5S23.3,2,17,2C7.3,2,2,8.3,2,16.7 v18.5h60V16.7C62,8.3,56.7,2,47,2z" fill="#ffb300"/><path d="M32,34.7C31.6,29,2,29,2,34.8V62h60V34.8C62,29,32.4,29,32,34.7z" fill="#c2185b"/><path d="m6.4 23.6c0 0-2.2-.6-2.2-3.9 0-2.6 1.7-3.1 1.7-3.1 6 0 15.8-7.8 15.8-7.8s3.7 6.9 7.3 7.8c0 0 1.7.3 1.7 3.1 0 3.3-2.3 3.9-2.3 3.9 0 5-6.8 10-11 10-4 0-11-5-11-10" fill="#ffdd67"/><g fill="#937237"><circle cx="12.1" cy="20.3" r="2.2"/><circle cx="22.9" cy="20.3" r="2.2"/><path d="m21.1 27.1c-2.3 1.8-4.9 1.8-7.2 0-.3-.2-.5.2-.3.5.7 1.3 2.1 2.4 3.9 2.4s3.2-1.1 3.9-2.4c.2-.3 0-.7-.3-.5"/></g><path d="m57.6 23.6c0 0 2.2-.6 2.2-3.9 0-2.6-1.7-3.1-1.7-3.1-6 0-15.8-7.8-15.8-7.8s-3.7 6.9-7.3 7.8c0 0-1.7.3-1.7 3.1 0 3.3 2.3 3.9 2.3 3.9 0 5 6.8 10 11 10 4 0 11-5 11-10" fill="#ffdd67"/><g fill="#937237"><circle cx="51.9" cy="20.3" r="2.2"/><circle cx="41.1" cy="20.3" r="2.2"/><path d="m42.9 27.1c2.3 1.8 4.9 1.8 7.2 0 .3-.2.5.2.3.5-.7 1.3-2.1 2.4-3.9 2.4-1.8 0-3.2-1.1-3.9-2.4-.2-.3 0-.7.3-.5"/></g><path d="m44.5 62h-25c0-8.4 25-8.4 25 0" fill="#29b6f6"/><path d="m32 36c-6.7 0-10.9 3.8-10.9 8.5v3.2c0 3.7 2.9 3.7 2.9 3.7h16.4c0 0 2.5 0 2.5-3.7 0-1.7 0-3.2 0-3.2 0-4.7-4.4-8.5-10.9-8.5" fill="#ffb300"/><path d="m22.1 48.5l.4-4.5c0-2.9 4.5-.6 9.5-.6s9.5-2.3 9.5.6l.4 4.5c2.2 0 2.2 3.5 0 3.5 0 4.4-5.9 7-9.9 7s-9.9-2.6-9.9-7c-2.1 0-2.1-3.5 0-3.5" fill="#ffdd67"/><g fill="#937237"><circle cx="27.2" cy="49.8" r="1.8"/><circle cx="36.8" cy="49.8" r="1.8"/><path d="m28.9 54.4c2 1.5 4.3 1.5 6.3 0 .2-.2.5.1.3.4-.6 1.1-1.9 2-3.4 2-1.6 0-2.8-1-3.4-2-.3-.3-.1-.6.2-.4"/></g></symbol>

  <symbol viewBox="0 0 64 64" id="emoji-1f944"><title>1f944</title><path d="m41.9 38.4c-3.3-3.3-5.6-5.6-10.4-10.4-3.1-3.1-.4-11-8.6-19.2-5.8-5.8-15.3-9-19.2-5.1-3.9 3.9-.7 13.4 5.1 19.2 8.2 8.2 16 5.5 19.2 8.6 4.8 4.8 7.1 7.1 10.4 10.4 4.3 4.3 4.6 5.8 11.3 14.8 3.3 4.5 6.5 7.3 10.4 3.4 4-4 1.1-7.1-3.4-10.4-9-6.7-10.4-7-14.8-11.3" fill="#d0d0d0"/><path d="m15.6 5.9c5.4 6.9 7.2 14.9 4.4 20.1.2 0 .4.1.5.1 1.9 0 3.6-.5 4.8-1.7 1.2-1.2 2-2.9 1.7-4.8-.4-2.8-1.9-6-5.2-9.3-1.8-1.9-4-3.4-6.2-4.4" fill="#fff"/><path d="m13.2 23.7c-6.9-6.9-9.2-15.8-5.5-20.4-1.3.1-2.3.5-3.1 1.3-3.1 3.1-.6 11.7 5.1 17.4 2.3 2.3 4.6 3.7 6.7 4.6 0 0 0-.1-.1-.1-1.1-.8-2.1-1.8-3.1-2.8" fill="#94989b"/></symbol>
</svg>